<svg xmlns="http://www.w3.org/2000/svg" xmlns:xlink="http://www.w3.org/1999/xlink" viewBox="0 0 93.92 124.48"><defs><style>.cls-1{fill:none;}.cls-2{fill:url(#linear-gradient);}.cls-3{fill:url(#Gradient-2);}.cls-4{fill:url(#linear-gradient-2);}.cls-5{fill:url(#Gradient-7);}.cls-6{fill:url(#Gradient-6);}.cls-7{fill:url(#Gradient-6-2);}.cls-8{fill:url(#Gradient-7-2);}.cls-9{fill:url(#Gradient-6-3);}</style><linearGradient id="linear-gradient" y1="43.6" x2="72.57" y2="43.6" gradientUnits="userSpaceOnUse"><stop offset="0" stop-color="#247c26"/><stop offset="0.56" stop-color="#f3fa16"/></linearGradient><linearGradient id="Gradient-2" x1="19.07" y1="34.52" x2="80.15" y2="34.52" gradientUnits="userSpaceOnUse"><stop offset="0" stop-color="#247c26"/><stop offset="1" stop-color="#f3fa16"/></linearGradient><linearGradient id="linear-gradient-2" x1="11.76" y1="93.5" x2="84.13" y2="60.99" gradientUnits="userSpaceOnUse"><stop offset="0.24" stop-color="#328771"/><stop offset="0.71" stop-color="#65bb51"/></linearGradient><linearGradient id="Gradient-7" x1="76.54" y1="23.67" x2="84.06" y2="23.67" gradientUnits="userSpaceOnUse"><stop offset="0" stop-color="#4a0678"/><stop offset="1" stop-color="#f30e68"/></linearGradient><linearGradient id="Gradient-6" x1="78.09" y1="26.86" x2="85.47" y2="31.57" gradientUnits="userSpaceOnUse"><stop offset="0" stop-color="#fd2d16"/><stop offset="1" stop-color="#febe51"/></linearGradient><linearGradient id="Gradient-6-2" x1="78.19" y1="30.93" x2="87.13" y2="30.93" xlink:href="#Gradient-6"/><linearGradient id="Gradient-7-2" x1="85.38" y1="39.49" x2="93.92" y2="39.49" xlink:href="#Gradient-7"/><linearGradient id="Gradient-6-3" x1="81.63" y1="35.53" x2="90.41" y2="32.94" xlink:href="#Gradient-6"/></defs><g id="Layer_2" data-name="Layer 2"><g id="Logo_Utama" data-name="Logo Utama"><path class="cls-1" d="M80.16,19.83h0L80,19.56Z"/><path class="cls-1" d="M87.2,43.6c0,.25,0,.5,0,.75s0,.51,0,.77c0-.61,0-1.22,0-1.83v-.44C87.2,43.09,87.2,43.34,87.2,43.6Z"/><path class="cls-1" d="M80,19.56A44.53,44.53,0,0,0,72.57,11,32.8,32.8,0,0,0,31,61.72s0,0,0,0a21.72,21.72,0,0,0,12.08,3.65h.17a21.8,21.8,0,0,1,0-43.59h.35a21.83,21.83,0,0,1,17.63,9L80.15,19.83A1.91,1.91,0,0,1,80,19.56Z"/><path class="cls-1" d="M80.15,19.83h0L61.23,30.76a21.83,21.83,0,0,0-17.63-9h-.35a21.79,21.79,0,0,0,0,43.58"/><path class="cls-1" d="M63.19,53.17H43.6V34H86.14c.28,1.21.5,2.45.67,3.7"/><path class="cls-1" d="M87.19,43.29c0,.61,0,1.21,0,1.83,0,2.71-.21,5.4-.48,8.05a96.29,96.29,0,0,1-13.86,41,97.65,97.65,0,0,1-29.47,30.34A97.54,97.54,0,0,1,9.59,85.73,43.94,43.94,0,0,0,20.85,87.2a43,43,0,0,0,11.37-1.51A43.68,43.68,0,0,0,63.4,53.17H43.6V34H86.14c.28,1.21.5,2.45.67,3.7a.06.06,0,0,1,0,0c.16,1.56.27,2.86.33,3.75,0,.08,0,.15,0,.22,0,.23,0,.46,0,.69v0C87.19,42.75,87.19,43,87.19,43.29Z"/><path class="cls-2" d="M63.19,53.17h.21A43.68,43.68,0,0,1,32.22,85.69,43,43,0,0,1,20.85,87.2,43.94,43.94,0,0,1,9.59,85.73,96.7,96.7,0,0,1,0,43.6,43.61,43.61,0,0,1,72.57,11,32.8,32.8,0,0,0,31,61.72s0,0,0,0a21.72,21.72,0,0,0,12.08,3.65h.52A21.81,21.81,0,0,0,63.19,53.17Z"/><path class="cls-3" d="M80.15,19.83,61.23,30.76a21.83,21.83,0,0,0-17.63-9h-.35a21.8,21.8,0,0,0,0,43.59h-.17A21.72,21.72,0,0,1,31,61.74s0,0,0,0A32.8,32.8,0,0,1,41.65,5.27,32.87,32.87,0,0,1,72.57,11,44.53,44.53,0,0,1,80,19.56,1.91,1.91,0,0,0,80.15,19.83Z"/><path class="cls-4" d="M87.19,43.29c0,.61,0,1.21,0,1.83-.09,2.76.11,5.45-.48,8.05a96.29,96.29,0,0,1-13.86,41,97.65,97.65,0,0,1-29.47,30.34A97.54,97.54,0,0,1,9.59,85.73,43.94,43.94,0,0,0,20.85,87.2a43,43,0,0,0,11.37-1.51A43.68,43.68,0,0,0,63.4,53.17H43.6V34H86.14c.28,1.21.5,2.45.67,3.7a.06.06,0,0,1,0,0q.24,1.86.33,3.75c0,.08,0,.15,0,.22,0,.23,0,.46,0,.69v0C87.19,42.75,87.19,43,87.19,43.29Z"/><path class="cls-1" d="M82.22,22.35h0Z"/><path class="cls-5" d="M84.06,23.56a4.76,4.76,0,0,0-.93,0,3.19,3.19,0,0,0-.61,0,13.55,13.55,0,0,0-2.76,1,3.33,3.33,0,0,1-1,.38,3.68,3.68,0,0,1-.58.07h-.13a3.51,3.51,0,0,1-.87-.11,3.09,3.09,0,0,1-.66-.25A3.26,3.26,0,0,0,77.92,24a4.83,4.83,0,0,1,.42-.37,5.66,5.66,0,0,1,3.06-1.26l.31,0h.51A2.27,2.27,0,0,1,84.06,23.56Z"/><path class="cls-6" d="M85.74,23.88a8.84,8.84,0,0,0-1.25.45h0a8.67,8.67,0,0,0-2,1.23,5.63,5.63,0,0,0-.45.38,8.37,8.37,0,0,0-1.38,1.42,11.77,11.77,0,0,0-2.15,4.54,10.34,10.34,0,0,0-.3,1.09l.06.11c-.07.45-.12.93-.15,1.42a1.62,1.62,0,0,0,0,.22c-.07-.11-.12-.23-.18-.34a9.13,9.13,0,0,1-.94-4c0-.26,0-.5,0-.75a9.13,9.13,0,0,1,1.76-4.69,3.33,3.33,0,0,0,1-.38l.08,0,0,0c.22-.1.75-.35,1.36-.57l.11-.05.12,0c.23-.08.47-.15.7-.21l.15,0,.09,0,.12,0c.22,0,.44,0,.66,0a9,9,0,0,1,1.74.16h0C85.23,23.74,85.49,23.81,85.74,23.88Z"/><path class="cls-7" d="M87.13,37.52c-.1,0-.63,0-.73,0h-.32c-.24,0-.47,0-.7,0a9.14,9.14,0,0,1-7.13-4.39L78.19,33a10.34,10.34,0,0,1,.3-1.09,11.77,11.77,0,0,1,2.15-4.54,9.88,9.88,0,0,1,.65-.76l.08-.07.13-.14.06-.05.22-.2.07-.06h0l0,0L82,26l.07,0a5.63,5.63,0,0,1,.45-.38,8.67,8.67,0,0,1,2-1.23,8.72,8.72,0,0,0-.86,1.59,9.23,9.23,0,0,0-.4,1.19c0,.13-.07.26-.1.4h0l-.14,0h0a2.27,2.27,0,0,0-1.65,1.39,2.18,2.18,0,0,0-.14.48,6.07,6.07,0,0,0-.14,1.29,5.6,5.6,0,0,0,.6,2.55,5.36,5.36,0,0,0,.65,1,9.07,9.07,0,0,0,2.55,2.35A12.58,12.58,0,0,0,87.13,37.52Z"/><path class="cls-1" d="M81.33,28.93a4.34,4.34,0,0,0-.14.48A2.18,2.18,0,0,1,81.33,28.93Z"/><path class="cls-1" d="M82.3,34.27a5.36,5.36,0,0,1-.65-1A7.67,7.67,0,0,0,82.3,34.27Z"/><path class="cls-1" d="M82.3,34.27a5.36,5.36,0,0,1-.65-1A7.67,7.67,0,0,0,82.3,34.27Z"/><path class="cls-1" d="M86.4,37.52h0"/><path class="cls-8" d="M93.92,41.43c-.32,0-.66,0-1,0a9.09,9.09,0,0,1-7.55-4c.23,0,.46,0,.7,0h.32s1.07.51,2.26.94c.35.12.72.24,1.09.34s.67.18,1,.26A9.28,9.28,0,0,0,93.92,41.43Z"/><path class="cls-9" d="M93.58,39.62s-1.42-.24-2.8-.56c-.36-.08-.71-.17-1-.26s-.74-.22-1.09-.34c-1.19-.43-2.22-.92-2.26-.94s.54,0,.73,0a12.58,12.58,0,0,1-2.28-.9,9.07,9.07,0,0,1-2.55-2.35,7.67,7.67,0,0,1-.65-1,5.6,5.6,0,0,1-.6-2.55,6.07,6.07,0,0,1,.14-1.29,4.34,4.34,0,0,1,.14-.48A2.27,2.27,0,0,1,83,27.54h0l.14,0h0a2.07,2.07,0,0,1,.35,0,2.29,2.29,0,0,1,1.41.49s0,0,0,0a10.44,10.44,0,0,1,3.37,3.86h0l.34.55c.4.65,1.08,1.77,1.71,2.78A17.63,17.63,0,0,0,93.58,39.62Z"/><path class="cls-1" d="M83.13,27.51h0l-.14,0Z"/></g></g></svg>